<svg width="128" height="128" viewBox="0 0 128 128" fill="none" xmlns="http://www.w3.org/2000/svg">
<rect width="128" height="128" fill="#FFA81D"/>
<g clip-path="url(#clip0_20_271)">
<path d="M85.5 57.3749L100.531 57.3706" stroke="black" stroke-width="2" stroke-linecap="round" stroke-linejoin="round"/>
<path d="M85.5 57.375C93.163 57.375 99.375 51.163 99.375 43.5C99.375 35.837 93.163 29.625 85.5 29.625C77.837 29.625 71.625 35.837 71.625 43.5C71.625 51.163 77.837 57.375 85.5 57.375Z" stroke="black" stroke-width="2" stroke-linecap="round" stroke-linejoin="round"/>
<path d="M80.3402 56.3835C81.3475 51.9548 83.5201 47.8758 86.6333 44.5687C89.7464 41.2617 93.6869 38.8469 98.0468 37.5742" stroke="black" stroke-width="2" stroke-linecap="round" stroke-linejoin="round"/>
<path d="M75.2874 52.8946C76.6917 48.3049 79.133 44.0997 82.4224 40.6043C85.7118 37.1089 89.7611 34.417 94.2571 32.7368" stroke="black" stroke-width="2" stroke-linecap="round" stroke-linejoin="round"/>
<path d="M86.0492 57.3649C86.8567 54.0547 88.509 51.0105 90.8446 48.5297C93.1803 46.0489 96.1194 44.2163 99.375 43.2109" stroke="black" stroke-width="2" stroke-linecap="round" stroke-linejoin="round"/>
<path d="M71.6698 42.3799C74.338 42.5386 76.9453 43.2435 79.33 44.451" stroke="black" stroke-width="2" stroke-linecap="round" stroke-linejoin="round"/>
<path d="M73.3868 36.7288C76.8055 37.1173 80.1089 38.1993 83.095 39.9084" stroke="black" stroke-width="2" stroke-linecap="round" stroke-linejoin="round"/>
<path d="M78.1463 31.7323C81.5908 32.6043 84.8603 34.0606 87.8125 36.0379" stroke="black" stroke-width="2" stroke-linecap="round" stroke-linejoin="round"/>
</g>
<path d="M35.8798 61.96V65.68C35.8798 65.8667 35.9198 65.96 35.9998 65.96C36.0398 65.96 36.1064 65.9133 36.1998 65.82L39.2798 61.98C39.4531 61.74 39.5398 61.5533 39.5398 61.42C39.5398 61.2467 39.4864 61.14 39.3798 61.1C39.2731 61.0467 39.1531 61.0133 39.0198 61C38.8864 60.9867 38.7664 60.9667 38.6598 60.94C38.5531 60.9 38.4998 60.8133 38.4998 60.68C38.4998 60.4933 38.5864 60.4 38.7598 60.4C38.8664 60.4 39.0598 60.4267 39.3398 60.48C39.6331 60.5333 40.0331 60.56 40.5398 60.56C41.0598 60.56 41.4598 60.5333 41.7398 60.48C42.0331 60.4267 42.2331 60.4 42.3398 60.4C42.5131 60.4 42.5998 60.4933 42.5998 60.68C42.5998 60.76 42.5731 60.82 42.5198 60.86C42.4664 60.8867 42.3931 60.9133 42.2998 60.94C42.2198 60.9533 42.1198 60.9733 41.9998 61C41.8798 61.0133 41.7598 61.0467 41.6398 61.1C41.4398 61.1933 41.1731 61.3867 40.8398 61.68C40.5198 61.9733 40.1531 62.3733 39.7398 62.88L37.7598 65.26C37.6531 65.3933 37.5998 65.4933 37.5998 65.56C37.5998 65.64 37.6198 65.7067 37.6598 65.76L41.1998 71.2C41.3864 71.48 41.5531 71.72 41.6998 71.92C41.8464 72.1067 42.0331 72.2533 42.2598 72.36C42.3531 72.4 42.4398 72.4267 42.5198 72.44C42.6131 72.4533 42.6931 72.4667 42.7598 72.48C42.8264 72.48 42.8798 72.5 42.9198 72.54C42.9598 72.5667 42.9798 72.6267 42.9798 72.72C42.9798 72.9067 42.8198 73 42.4998 73C42.3531 73 42.1198 72.98 41.7998 72.94C41.4931 72.9 41.0731 72.88 40.5398 72.88C39.9798 72.88 39.5531 72.9 39.2598 72.94C38.9664 72.98 38.7798 73 38.6998 73C38.3798 73 38.2198 72.9067 38.2198 72.72C38.2198 72.6267 38.2731 72.5667 38.3798 72.54C38.4864 72.5 38.6064 72.4733 38.7398 72.46C38.8731 72.4467 38.9931 72.4267 39.0998 72.4C39.2064 72.36 39.2598 72.28 39.2598 72.16C39.2598 72.08 39.2464 71.9933 39.2198 71.9C39.2064 71.8067 39.1664 71.7133 39.0998 71.62L36.2598 66.96C36.2064 66.88 36.1464 66.84 36.0798 66.84C35.9464 66.84 35.8798 66.9333 35.8798 67.12V71.12C35.8798 71.3333 35.8798 71.5067 35.8798 71.64C35.8931 71.7733 35.9131 71.8867 35.9398 71.98C35.9798 72.06 36.0331 72.1267 36.0998 72.18C36.1798 72.2333 36.2864 72.28 36.4198 72.32C36.5398 72.36 36.6531 72.38 36.7598 72.38C36.8664 72.38 36.9598 72.3867 37.0398 72.4C37.1198 72.4133 37.1798 72.4467 37.2198 72.5C37.2731 72.54 37.2998 72.6133 37.2998 72.72C37.2998 72.9067 37.1598 73 36.8798 73C36.7598 73 36.5398 72.98 36.2198 72.94C35.9131 72.9 35.4998 72.88 34.9798 72.88C34.4598 72.88 34.0398 72.9 33.7198 72.94C33.4131 72.98 33.1998 73 33.0798 73C32.7998 73 32.6598 72.8933 32.6598 72.68C32.6598 72.5867 32.6798 72.52 32.7198 72.48C32.7731 72.44 32.8331 72.4133 32.8998 72.4C32.9798 72.3867 33.0664 72.38 33.1598 72.38C33.2531 72.38 33.3464 72.3667 33.4398 72.34C33.5998 72.3 33.7198 72.2533 33.7998 72.2C33.8931 72.1467 33.9598 72.08 33.9998 72C34.0398 71.9067 34.0598 71.7933 34.0598 71.66C34.0731 71.5133 34.0798 71.3333 34.0798 71.12V61.96C34.0798 61.64 34.0531 61.4267 33.9998 61.32C33.9598 61.2 33.8398 61.1067 33.6398 61.04C33.5064 61 33.3798 60.98 33.2598 60.98C33.1531 60.98 33.0531 60.9733 32.9598 60.96C32.8798 60.9467 32.8131 60.9267 32.7598 60.9C32.7198 60.86 32.6998 60.7867 32.6998 60.68C32.6998 60.4933 32.7998 60.4 32.9998 60.4C33.1064 60.4 33.3198 60.4267 33.6398 60.48C33.9598 60.5333 34.4064 60.56 34.9798 60.56C35.5531 60.56 35.9998 60.5333 36.3198 60.48C36.6398 60.4267 36.8531 60.4 36.9598 60.4C37.1598 60.4 37.2598 60.4933 37.2598 60.68C37.2598 60.7733 37.2398 60.84 37.1998 60.88C37.1598 60.9067 37.0998 60.9267 37.0198 60.94C36.9398 60.9533 36.8464 60.9667 36.7398 60.98C36.6331 60.98 36.5198 60.9933 36.3998 61.02C36.1464 61.0733 35.9931 61.1667 35.9398 61.3C35.8998 61.42 35.8798 61.64 35.8798 61.96ZM45.437 64.22V65.04C45.437 65.2133 45.457 65.3 45.497 65.3C45.537 65.3 45.5903 65.26 45.657 65.18L45.877 64.92C46.157 64.5733 46.477 64.3067 46.837 64.12C47.2103 63.9333 47.597 63.84 47.997 63.84C48.8236 63.84 49.4636 64.1267 49.917 64.7C50.3836 65.26 50.617 66.0933 50.617 67.2V71.5C50.617 71.9133 50.717 72.1867 50.917 72.32C51.0103 72.3733 51.1036 72.4067 51.197 72.42C51.3036 72.4333 51.397 72.4467 51.477 72.46C51.557 72.4733 51.617 72.5 51.657 72.54C51.7103 72.58 51.737 72.6533 51.737 72.76C51.737 72.9733 51.617 73.08 51.377 73.08C51.1903 73.08 50.9636 73.0533 50.697 73C50.4303 72.96 50.1236 72.94 49.777 72.94C49.4303 72.94 49.1303 72.96 48.877 73C48.637 73.0533 48.4503 73.08 48.317 73.08C48.1036 73.08 47.997 72.9667 47.997 72.74C47.997 72.6467 48.0103 72.58 48.037 72.54C48.077 72.5 48.1236 72.4733 48.177 72.46C48.2436 72.4467 48.3103 72.44 48.377 72.44C48.457 72.4267 48.537 72.4 48.617 72.36C48.777 72.28 48.8703 72.18 48.897 72.06C48.9236 71.9267 48.937 71.74 48.937 71.5V67.46C48.937 66.66 48.7903 66.06 48.497 65.66C48.2036 65.2467 47.7836 65.04 47.237 65.04C46.7303 65.04 46.317 65.2133 45.997 65.56C45.677 65.9067 45.517 66.44 45.517 67.16V71.5C45.517 71.7267 45.5303 71.9067 45.557 72.04C45.597 72.16 45.6836 72.2533 45.817 72.32C45.937 72.3867 46.0436 72.4267 46.137 72.44C46.2303 72.44 46.3103 72.4467 46.377 72.46C46.457 72.4733 46.517 72.5 46.557 72.54C46.597 72.58 46.617 72.66 46.617 72.78C46.617 72.98 46.497 73.08 46.257 73.08C46.0703 73.08 45.8436 73.0533 45.577 73C45.3103 72.96 45.0103 72.94 44.677 72.94C44.3303 72.94 44.037 72.96 43.797 73C43.557 73.0533 43.3636 73.08 43.217 73.08C43.0036 73.08 42.897 72.9667 42.897 72.74C42.897 72.6467 42.9103 72.58 42.937 72.54C42.977 72.5 43.0236 72.4733 43.077 72.46C43.1303 72.4467 43.1903 72.44 43.257 72.44C43.337 72.4267 43.417 72.4 43.497 72.36C43.6436 72.2933 43.737 72.2 43.777 72.08C43.817 71.96 43.837 71.7667 43.837 71.5V66.78C43.837 66.42 43.7903 66.18 43.697 66.06C43.617 65.94 43.5236 65.8667 43.417 65.84C43.3103 65.8133 43.2103 65.8 43.117 65.8C43.037 65.7867 42.997 65.7133 42.997 65.58C42.997 65.4467 43.0836 65.3333 43.257 65.24C43.4303 65.1333 43.6836 64.98 44.017 64.78C44.4036 64.5533 44.677 64.3333 44.837 64.12C44.997 63.9067 45.137 63.8 45.257 63.8C45.297 63.8 45.337 63.8333 45.377 63.9C45.417 63.9667 45.437 64.0733 45.437 64.22ZM54.2087 60.36C54.4487 60.36 54.6553 60.4733 54.8287 60.7C55.002 60.9267 55.0887 61.18 55.0887 61.46C55.0887 61.74 55.002 61.9933 54.8287 62.22C54.6553 62.4467 54.4487 62.56 54.2087 62.56C53.9687 62.56 53.762 62.4467 53.5887 62.22C53.4153 61.9933 53.3287 61.74 53.3287 61.46C53.3287 61.18 53.4153 60.9267 53.5887 60.7C53.762 60.4733 53.9687 60.36 54.2087 60.36ZM54.9687 64.2V71.5C54.9687 71.74 54.9887 71.92 55.0287 72.04C55.082 72.16 55.1687 72.2533 55.2887 72.32C55.3953 72.3733 55.4953 72.4067 55.5887 72.42C55.6953 72.4333 55.782 72.4533 55.8487 72.48C55.9287 72.4933 55.9887 72.52 56.0287 72.56C56.082 72.6 56.1087 72.6667 56.1087 72.76C56.1087 72.9733 55.9887 73.08 55.7487 73.08C55.5487 73.08 55.3087 73.0533 55.0287 73C54.7487 72.96 54.4487 72.94 54.1287 72.94C53.782 72.94 53.4887 72.96 53.2487 73C53.0087 73.0533 52.8153 73.08 52.6687 73.08C52.4687 73.08 52.3687 72.9667 52.3687 72.74C52.3687 72.6467 52.382 72.58 52.4087 72.54C52.4487 72.5 52.4953 72.4733 52.5487 72.46C52.6153 72.4467 52.682 72.44 52.7487 72.44C52.8153 72.4267 52.8887 72.4 52.9687 72.36C53.1153 72.28 53.202 72.1867 53.2287 72.08C53.2687 71.96 53.2887 71.7667 53.2887 71.5V66.78C53.2887 66.42 53.242 66.18 53.1487 66.06C53.0687 65.94 52.9753 65.8667 52.8687 65.84C52.7753 65.8 52.682 65.78 52.5887 65.78C52.5087 65.7667 52.4687 65.6933 52.4687 65.56C52.4687 65.4133 52.5553 65.2933 52.7287 65.2C52.9153 65.1067 53.1753 64.9667 53.5087 64.78C53.7087 64.66 53.8753 64.54 54.0087 64.42C54.1553 64.3 54.2753 64.1933 54.3687 64.1C54.462 64.0067 54.5353 63.9333 54.5887 63.88C54.6553 63.8133 54.7153 63.78 54.7687 63.78C54.902 63.78 54.9687 63.92 54.9687 64.2ZM59.2427 62.72V63.94C59.2427 64.1133 59.3294 64.2 59.5027 64.2H61.0027C61.1227 64.2 61.1961 64.2133 61.2227 64.24C61.2494 64.2667 61.2627 64.32 61.2627 64.4V64.8C61.2627 64.9067 61.2494 64.98 61.2227 65.02C61.1961 65.06 61.1227 65.08 61.0027 65.08H59.4827C59.3227 65.08 59.2427 65.1667 59.2427 65.34V70.4C59.2427 71.0267 59.2961 71.4867 59.4027 71.78C59.5227 72.06 59.7361 72.2 60.0427 72.2C60.1894 72.2 60.3161 72.1733 60.4227 72.12C60.5427 72.0667 60.6494 72.0067 60.7427 71.94C60.8361 71.86 60.9161 71.7933 60.9827 71.74C61.0627 71.6867 61.1361 71.66 61.2027 71.66C61.3361 71.66 61.4027 71.7533 61.4027 71.94C61.4027 72.0333 61.3427 72.16 61.2227 72.32C61.1027 72.48 60.9361 72.64 60.7227 72.8C60.5227 72.96 60.2827 73.0933 60.0027 73.2C59.7361 73.32 59.4494 73.38 59.1427 73.38C58.0761 73.38 57.5427 72.5333 57.5427 70.84V70L57.6227 65.7C57.6227 65.5133 57.6094 65.3667 57.5827 65.26C57.5561 65.14 57.4761 65.08 57.3427 65.08H56.9827C56.7427 65.08 56.6227 64.9933 56.6227 64.82C56.6227 64.74 56.6561 64.6667 56.7227 64.6C56.7894 64.5333 56.8827 64.46 57.0027 64.38C57.1227 64.3 57.2561 64.2 57.4027 64.08C57.5627 63.96 57.7361 63.8 57.9227 63.6C58.2427 63.2267 58.4761 62.9067 58.6227 62.64C58.7827 62.3733 58.9227 62.24 59.0427 62.24C59.1361 62.24 59.1894 62.2867 59.2027 62.38C59.2294 62.46 59.2427 62.5733 59.2427 62.72ZM74.338 63.16L71.098 72.88C71.018 73.1333 70.9047 73.26 70.758 73.26C70.6514 73.26 70.578 73.1733 70.538 73C70.498 72.8267 70.4247 72.6 70.318 72.32L68.938 68.3C68.898 68.1667 68.8447 68.1 68.778 68.1C68.7514 68.1 68.7047 68.1667 68.638 68.3L66.778 72.88C66.7247 73.0133 66.6847 73.1067 66.658 73.16C66.6314 73.2267 66.578 73.26 66.498 73.26C66.3647 73.26 66.1714 72.9 65.918 72.18L62.658 62.82C62.4847 62.34 62.338 61.9533 62.218 61.66C62.098 61.3667 61.9447 61.1667 61.758 61.06C61.6914 61.02 61.6114 61 61.518 61C61.438 60.9867 61.3647 60.9733 61.298 60.96C61.218 60.9467 61.1514 60.92 61.098 60.88C61.0447 60.84 61.018 60.78 61.018 60.7C61.018 60.5133 61.158 60.42 61.438 60.42C61.5314 60.42 61.738 60.4467 62.058 60.5C62.378 60.54 62.838 60.56 63.438 60.56C63.8647 60.56 64.1914 60.5467 64.418 60.52C64.6447 60.48 64.778 60.46 64.818 60.46C64.978 60.46 65.058 60.5467 65.058 60.72C65.058 60.84 65.0114 60.92 64.918 60.96C64.838 60.9867 64.7447 61.02 64.638 61.06C64.5447 61.0867 64.4514 61.1333 64.358 61.2C64.278 61.2533 64.238 61.36 64.238 61.52C64.238 61.5467 64.2514 61.64 64.278 61.8C64.3047 61.96 64.358 62.1533 64.438 62.38L67.058 69.9C67.098 70.02 67.138 70.08 67.178 70.08C67.2314 70.08 67.278 70.0133 67.318 69.88L68.278 67.26C68.3314 67.1133 68.358 66.9933 68.358 66.9C68.358 66.74 68.338 66.6067 68.298 66.5L66.738 61.96C66.5514 61.4 66.3314 61.08 66.078 61C65.9314 60.96 65.798 60.94 65.678 60.94C65.558 60.9267 65.498 60.8467 65.498 60.7C65.498 60.5267 65.6247 60.44 65.878 60.44C66.1047 60.44 66.398 60.46 66.758 60.5C67.118 60.54 67.5647 60.56 68.098 60.56C68.4047 60.56 68.638 60.5467 68.798 60.52C68.958 60.48 69.0647 60.46 69.118 60.46C69.238 60.46 69.298 60.54 69.298 60.7C69.298 60.8333 69.258 60.92 69.178 60.96C69.098 60.9867 69.0114 61.0133 68.918 61.04C68.838 61.0667 68.758 61.1133 68.678 61.18C68.598 61.2333 68.558 61.34 68.558 61.5C68.558 61.6067 68.5714 61.74 68.598 61.9C68.638 62.0467 68.6914 62.2133 68.758 62.4L69.298 64C69.3514 64.1733 69.4047 64.26 69.458 64.26C69.498 64.26 69.558 64.1667 69.638 63.98L70.418 61.96C70.4447 61.8933 70.4647 61.8067 70.478 61.7C70.4914 61.5933 70.498 61.4867 70.498 61.38C70.498 61.26 70.458 61.1733 70.378 61.12C70.3114 61.0667 70.2314 61.0267 70.138 61C70.0447 60.96 69.958 60.9267 69.878 60.9C69.8114 60.86 69.778 60.7867 69.778 60.68C69.778 60.5067 69.8514 60.42 69.998 60.42C70.078 60.42 70.2047 60.44 70.378 60.48C70.5647 60.5067 70.8047 60.52 71.098 60.52C71.418 60.52 71.678 60.5067 71.878 60.48C72.078 60.4533 72.2247 60.44 72.318 60.44C72.5314 60.44 72.638 60.52 72.638 60.68C72.638 60.7867 72.6114 60.86 72.558 60.9C72.5047 60.9267 72.438 60.9467 72.358 60.96C72.278 60.96 72.1914 60.9667 72.098 60.98C72.0047 60.98 71.918 61 71.838 61.04C71.6914 61.1067 71.5647 61.2333 71.458 61.42C71.3647 61.5933 71.2647 61.8133 71.158 62.08L69.918 65.12C69.8914 65.1867 69.8647 65.2533 69.838 65.32C69.8114 65.3733 69.798 65.4333 69.798 65.5C69.798 65.5533 69.8114 65.62 69.838 65.7L71.198 69.9C71.238 70.02 71.2847 70.08 71.338 70.08C71.4047 70.08 71.458 70.0133 71.498 69.88L73.758 62.8C73.838 62.5333 73.898 62.28 73.938 62.04C73.978 61.8 73.998 61.6267 73.998 61.52C73.998 61.32 73.958 61.1867 73.878 61.12C73.798 61.0533 73.7047 61.0067 73.598 60.98C73.5047 60.9533 73.418 60.9267 73.338 60.9C73.258 60.86 73.218 60.78 73.218 60.66C73.218 60.4867 73.278 60.4 73.398 60.4C73.4647 60.4 73.598 60.42 73.798 60.46C74.0114 60.5 74.3047 60.52 74.678 60.52C75.038 60.52 75.3247 60.5067 75.538 60.48C75.7514 60.4533 75.898 60.44 75.978 60.44C76.1914 60.44 76.298 60.52 76.298 60.68C76.298 60.8 76.2647 60.8733 76.198 60.9C76.1314 60.9267 76.0447 60.9467 75.938 60.96C75.8314 60.9733 75.7114 61 75.578 61.04C75.458 61.0667 75.338 61.1467 75.218 61.28C75.1114 61.3867 74.978 61.6 74.818 61.92C74.6714 62.24 74.5114 62.6533 74.338 63.16ZM77.9391 60.36C78.1791 60.36 78.3858 60.4733 78.5591 60.7C78.7325 60.9267 78.8191 61.18 78.8191 61.46C78.8191 61.74 78.7325 61.9933 78.5591 62.22C78.3858 62.4467 78.1791 62.56 77.9391 62.56C77.6991 62.56 77.4925 62.4467 77.3191 62.22C77.1458 61.9933 77.0591 61.74 77.0591 61.46C77.0591 61.18 77.1458 60.9267 77.3191 60.7C77.4925 60.4733 77.6991 60.36 77.9391 60.36ZM78.6991 64.2V71.5C78.6991 71.74 78.7191 71.92 78.7591 72.04C78.8125 72.16 78.8991 72.2533 79.0191 72.32C79.1258 72.3733 79.2258 72.4067 79.3191 72.42C79.4258 72.4333 79.5125 72.4533 79.5791 72.48C79.6591 72.4933 79.7191 72.52 79.7591 72.56C79.8125 72.6 79.8391 72.6667 79.8391 72.76C79.8391 72.9733 79.7191 73.08 79.4791 73.08C79.2791 73.08 79.0391 73.0533 78.7591 73C78.4791 72.96 78.1791 72.94 77.8591 72.94C77.5125 72.94 77.2191 72.96 76.9791 73C76.7391 73.0533 76.5458 73.08 76.3991 73.08C76.1991 73.08 76.0991 72.9667 76.0991 72.74C76.0991 72.6467 76.1125 72.58 76.1391 72.54C76.1791 72.5 76.2258 72.4733 76.2791 72.46C76.3458 72.4467 76.4125 72.44 76.4791 72.44C76.5458 72.4267 76.6191 72.4 76.6991 72.36C76.8458 72.28 76.9325 72.1867 76.9591 72.08C76.9991 71.96 77.0191 71.7667 77.0191 71.5V66.78C77.0191 66.42 76.9725 66.18 76.8791 66.06C76.7991 65.94 76.7058 65.8667 76.5991 65.84C76.5058 65.8 76.4125 65.78 76.3191 65.78C76.2391 65.7667 76.1991 65.6933 76.1991 65.56C76.1991 65.4133 76.2858 65.2933 76.4591 65.2C76.6458 65.1067 76.9058 64.9667 77.2391 64.78C77.4391 64.66 77.6058 64.54 77.7391 64.42C77.8858 64.3 78.0058 64.1933 78.0991 64.1C78.1925 64.0067 78.2658 63.9333 78.3191 63.88C78.3858 63.8133 78.4458 63.78 78.4991 63.78C78.6325 63.78 78.6991 63.92 78.6991 64.2ZM83.4132 63.84C84.2532 63.84 84.8265 63.92 85.1332 64.08C85.4399 64.24 85.5932 64.4933 85.5932 64.84C85.5932 65.3067 85.5732 65.6533 85.5332 65.88C85.4932 66.0933 85.4065 66.2 85.2732 66.2C85.1265 66.2 85.0399 66.1067 85.0132 65.92C84.9865 65.7333 84.8932 65.5 84.7332 65.22C84.3999 64.6467 83.9599 64.36 83.4132 64.36C83.0265 64.36 82.7132 64.4733 82.4732 64.7C82.2465 64.9133 82.1332 65.1933 82.1332 65.54C82.1332 65.7667 82.1799 65.96 82.2732 66.12C82.3665 66.2667 82.4999 66.4067 82.6732 66.54C82.8465 66.6733 83.0532 66.8067 83.2932 66.94C83.5465 67.06 83.8265 67.2 84.1332 67.36C84.7865 67.7067 85.2665 68.1 85.5732 68.54C85.8799 68.9667 86.0332 69.5067 86.0332 70.16C86.0332 70.6667 85.9532 71.12 85.7932 71.52C85.6465 71.92 85.4332 72.26 85.1532 72.54C84.8732 72.8067 84.5399 73.0133 84.1532 73.16C83.7799 73.3067 83.3665 73.38 82.9132 73.38C82.4599 73.38 82.0532 73.3267 81.6932 73.22C81.3332 73.1267 81.0599 73.02 80.8732 72.9C80.7532 72.8333 80.6799 72.7467 80.6532 72.64C80.6265 72.5333 80.6132 72.3867 80.6132 72.2V71.7C80.6132 71.1533 80.6265 70.76 80.6532 70.52C80.6799 70.2667 80.7665 70.14 80.9132 70.14C81.0065 70.14 81.0732 70.1733 81.1132 70.24C81.1532 70.3067 81.1865 70.4067 81.2132 70.54C81.2532 70.66 81.2932 70.8133 81.3332 71C81.3865 71.1733 81.4665 71.3733 81.5732 71.6C81.9465 72.4133 82.4799 72.82 83.1732 72.82C83.5999 72.82 83.9465 72.6733 84.2132 72.38C84.4932 72.0867 84.6332 71.6933 84.6332 71.2C84.6332 70.9467 84.5865 70.7267 84.4932 70.54C84.4132 70.34 84.2865 70.1667 84.1132 70.02C83.9532 69.86 83.7532 69.7133 83.5132 69.58C83.2732 69.4333 83.0065 69.28 82.7132 69.12C82.3799 68.9467 82.0865 68.78 81.8332 68.62C81.5799 68.4467 81.3665 68.2667 81.1932 68.08C81.0199 67.88 80.8865 67.66 80.7932 67.42C80.7132 67.1667 80.6732 66.8733 80.6732 66.54C80.6732 65.7133 80.9265 65.06 81.4332 64.58C81.9532 64.0867 82.6132 63.84 83.4132 63.84ZM90.5357 66.74C91.189 66.74 91.6624 66.6667 91.9557 66.52C92.2624 66.3733 92.4157 66.08 92.4157 65.64C92.4157 65.3067 92.2757 65 91.9957 64.72C91.729 64.44 91.3824 64.3 90.9557 64.3C90.489 64.3 90.0824 64.48 89.7357 64.84C89.389 65.2 89.1624 65.6533 89.0557 66.2L88.9957 66.52V66.56C88.9957 66.68 89.0757 66.74 89.2357 66.74H90.5357ZM93.4957 67.36H89.0757C88.969 67.36 88.9024 67.38 88.8757 67.42C88.849 67.46 88.8357 67.5467 88.8357 67.68V68.16C88.8357 69.4 89.0957 70.38 89.6157 71.1C90.149 71.82 90.8357 72.18 91.6757 72.18C92.049 72.18 92.369 72.12 92.6357 72C92.9157 71.88 93.1424 71.7467 93.3157 71.6C93.5024 71.4533 93.6424 71.32 93.7357 71.2C93.8424 71.08 93.9157 71.02 93.9557 71.02C94.0624 71.02 94.1157 71.0933 94.1157 71.24C94.1157 71.3867 94.0357 71.58 93.8757 71.82C93.7157 72.06 93.4824 72.3 93.1757 72.54C92.8824 72.7667 92.529 72.9667 92.1157 73.14C91.7024 73.3133 91.2357 73.4 90.7157 73.4C90.169 73.4 89.669 73.2867 89.2157 73.06C88.7757 72.8467 88.3957 72.5333 88.0757 72.12C87.7557 71.7067 87.509 71.2067 87.3357 70.62C87.1624 70.0333 87.0757 69.3733 87.0757 68.64C87.0757 67.9067 87.169 67.2467 87.3557 66.66C87.5557 66.06 87.829 65.5533 88.1757 65.14C88.5224 64.7267 88.929 64.4067 89.3957 64.18C89.8757 63.9533 90.3957 63.84 90.9557 63.84C91.4357 63.84 91.8757 63.9267 92.2757 64.1C92.6757 64.26 93.0157 64.48 93.2957 64.76C93.5757 65.04 93.789 65.3667 93.9357 65.74C94.0957 66.1133 94.1757 66.5133 94.1757 66.94C94.1757 67.1133 94.1224 67.2267 94.0157 67.28C93.909 67.3333 93.7357 67.36 93.4957 67.36Z" fill="black"/>
<defs>
<clipPath id="clip0_20_271">
<rect width="37" height="37" fill="white" transform="translate(67 25)"/>
</clipPath>
</defs>
</svg>
